<?xml version="1.0" standalone="no"?>
<!DOCTYPE svg PUBLIC "-//W3C//DTD SVG 20010904//EN"
 "http://www.w3.org/TR/2001/REC-SVG-20010904/DTD/svg10.dtd">
<svg version="1.0" xmlns="http://www.w3.org/2000/svg"
 width="140.000000pt" height="140.000000pt" viewBox="0 0 140.000000 140.000000"
 preserveAspectRatio="xMidYMid meet">
<metadata>
Created by potrace 1.14, written by Peter Selinger 2001-2017
</metadata>
<g transform="translate(0.000000,140.000000) scale(0.100000,-0.100000)"
fill="#000000" stroke="none">
<path d="M310 1360 c-17 -17 -20 -34 -20 -102 l-1 -83 -42 -19 c-23 -11 -67
-45 -97 -75 -98 -99 -103 -165 -45 -541 2 -14 7 -50 10 -80 3 -30 8 -66 10
-80 2 -14 9 -60 14 -103 15 -108 44 -161 123 -220 63 -48 113 -55 373 -53 229
2 242 3 289 26 51 24 122 90 132 123 5 14 15 18 47 17 103 -4 118 -1 152 33
34 34 32 28 50 192 4 37 12 119 25 244 14 139 -15 189 -118 201 l-44 5 -3 50
c-3 77 -25 133 -72 186 -24 26 -68 60 -98 75 l-55 26 0 79 c0 125 17 119 -325
119 -272 0 -286 -1 -305 -20z m105 -202 l0 -173 -37 -3 -38 -3 -1 105 c0 58
-1 133 -1 166 0 33 1 65 1 70 1 6 18 10 39 10 l37 0 0 -172z m352 -3 l0 -176
-151 3 -151 3 -1 173 0 172 151 0 152 0 0 -175z m125 138 c2 -21 2 -100 0
-176 l-3 -138 -37 3 -37 3 0 173 -1 172 37 0 c36 0 38 -1 41 -37z m164 -242
c42 -43 68 -122 62 -192 -3 -30 0 -53 6 -57 6 -3 36 -7 66 -9 46 -1 59 -6 78
-29 21 -24 23 -33 18 -93 -4 -36 -9 -77 -11 -91 -2 -14 -7 -56 -10 -95 -23
-268 -23 -268 -143 -270 -78 -1 -102 -7 -102 -27 0 -21 -59 -84 -101 -108 -43
-25 -49 -25 -285 -27 -275 -3 -306 3 -373 68 -48 46 -67 86 -75 165 -4 32 -9
73 -11 89 -6 38 -12 84 -21 160 -3 33 -8 69 -10 80 -6 32 -20 139 -30 232 -11
106 30 188 127 248 21 14 41 25 44 25 3 0 5 -17 5 -37 -1 -32 -6 -41 -33 -58
-69 -44 -59 -109 24 -152 75 -39 178 -56 334 -56 210 0 358 40 395 105 19 36
5 77 -37 103 -28 17 -32 26 -33 63 l0 43 40 -22 c23 -13 56 -39 76 -58z m-743
-116 c12 -3 157 -4 322 -3 l300 3 3 28 c3 23 6 26 18 16 38 -31 -9 -69 -121
-95 -94 -22 -317 -26 -410 -7 -78 16 -154 48 -162 69 -3 8 1 22 8 31 13 15 14
14 17 -10 2 -18 11 -29 25 -32z"/>
<path d="M1106 732 c-5 -8 -14 -63 -20 -127 -3 -22 -7 -60 -11 -85 -26 -192
-30 -231 -24 -241 4 -6 26 -11 50 -11 35 1 49 6 67 27 12 14 22 36 23 48 0 12
2 31 4 42 10 63 28 236 28 268 -1 50 -34 87 -79 87 -18 0 -35 -3 -38 -8z m69
-62 c4 -11 4 -33 1 -48 -5 -25 -8 -51 -21 -169 -12 -106 -17 -123 -37 -134
-20 -11 -20 -9 -14 52 4 35 14 114 22 174 9 61 16 118 17 128 2 23 24 22 32
-3z"/>
</g>
</svg>
